<?xml version="1.0" encoding="utf-8"?>
<!-- Designed by Vexels.com - 2017 All Rights Reserved - https://vexels.com/terms-and-conditions/  -->

<svg version="1.1" id="Layer_1" xmlns="http://www.w3.org/2000/svg" xmlns:xlink="http://www.w3.org/1999/xlink" x="0px" y="0px"
	 width="1200px" height="1200px" viewBox="0 0 1200 1200" enable-background="new 0 0 1200 1200" xml:space="preserve">
<g>
	<g>
		<path fill="#282727" d="M556.037,704.494c-3.167,14.661-9.158,25.744-17.809,32.928c-8.707,7.244-19.147,10.764-31.908,10.764
			c-10.594,0-20.168-2.64-29.254-8.104c-8.815-5.29-15.164-13.143-19.409-24.022c-4.472-11.441-6.74-25.134-6.74-40.713
			c0-11.982,1.929-23.79,5.73-35.056c3.593-10.666,9.631-18.915,18.456-25.211c8.718-6.228,19.893-9.38,33.214-9.38
			c11.466,0,20.604,2.679,27.934,8.2c7.292,5.483,13.027,14.661,17.044,27.271l2.128,6.664l39.988-9.419l-2.224-7.64
			c-5.682-19.544-15.967-34.988-30.56-45.887c-14.588-10.889-32.682-16.411-53.779-16.411c-18.417,0-35.564,4.274-50.954,12.717
			c-15.613,8.558-27.808,21.216-36.24,37.657c-8.284,16.14-12.485,35.191-12.485,56.632c0,19.563,3.675,38.16,10.919,55.257
			c7.441,17.581,18.519,31.246,32.923,40.597c14.366,9.332,33.021,14.071,55.441,14.071c21.972,0,40.907-6.169,56.278-18.335
			c15.328-12.137,26.038-29.834,31.85-52.579l1.872-7.35l-40.762-10.299L556.037,704.494z"/>
		<path fill="#282727" d="M748.129,571.814l-54.537,146.665c-1.155,3.094-2.278,6.189-3.36,9.293
			c-1.026-3.017-2.089-6.073-3.207-9.177l-52.511-146.781h-44.321l81.471,210.268h36.83l82.331-210.268H748.129z"/>
	</g>
	<path fill="#282727" d="M685.638,451.047c0,0,19.433,13.113,9.651-7.35c0,0-0.005-0.097-0.005-0.232l-18.708-32.252l-18.378-44.601
		l-30.714-74.115l0.121-0.107L455.492,89.956l0.019-0.019l-20.898-25.115c-1.189-2.03-2.684-4.071-4.236-5.889
		c-4.816-5.667-11.759-11.17-15.487-8.007l-70.093,59.6c-3.717,3.162,0.585,10.899,5.402,16.565
		c0.565,0.658,1.155,1.325,1.764,1.963l23.175,27.261l-0.062,0.049l173.074,203.576l67.216,42.928l49.615,31.545l20.646,16.643
		L685.638,451.047z"/>
	<path fill="#282727" d="M980.872,926.319V283.552l-0.146-1.238c-0.082-0.735-0.121-1.044-0.121-1.257
		c0-23.829-12.925-38.683-29.234-45.617c-10.682-5.347-21.551-4.554-21.551-4.554l-0.082-0.097h-2.461H271.89
		c-7.62,0.154-14.298,1.315-20.091,3.21c0,0-30.873,15.463-32.672,50.761l1.789,805.784c0.532,1.276,0.812,2.853,0.759,4.787
		c-0.527,20.203,10.015,36.99,10.015,36.99c0.463,0.561,0.948,1.102,1.46,1.663c6.533,7.051,18.742,15.56,39.79,16.015h0.537
		h469.818L980.872,926.319z M709.544,957.023l-1.524,118.378l2.713,0.561H299.515l-1.717-771.145h604.437v590.845l-0.455,0.426
		H773.36C773.36,896.089,709.544,898.942,709.544,957.023z"/>
</g>
</svg>
